<?xml version="1.0" standalone="no"?>
<!DOCTYPE svg PUBLIC "-//W3C//DTD SVG 1.1//EN" "http://www.w3.org/Graphics/SVG/1.1/DTD/svg11.dtd" >
<svg>
<metadata>
Created by FontForge 20120731 at Sat Oct 18 12:44:40 2014
 By Orthosie Webhosting
Copyright (c) 2014 by Ion Lucin. All rights reserved.
</metadata>
<defs>
<font id="SlimJoeRegular" horiz-adv-x="584" >
  <font-face 
    font-family="SlimJoeRegular"
    font-weight="400"
    font-stretch="normal"
    units-per-em="1000"
    panose-1="2 0 0 0 0 0 0 0 0 0"
    ascent="750"
    descent="-250"
    x-height="750"
    cap-height="750"
    bbox="5 -60 1120 809"
    underline-thickness="50"
    underline-position="-50"
    unicode-range="U+000D-2044"
  />
<missing-glyph horiz-adv-x="500" 
 />
    <glyph glyph-name=".notdef" horiz-adv-x="500" 
 />
    <glyph glyph-name=".null" horiz-adv-x="0" 
 />
    <glyph glyph-name="nonmarkingreturn" horiz-adv-x="333" 
 />
    <glyph glyph-name="NULL" horiz-adv-x="0" 
 />
    <glyph glyph-name="NULL" horiz-adv-x="0" 
 />
    <glyph glyph-name="CR" unicode="&#xd;" horiz-adv-x="500" 
 />
    <glyph glyph-name="space" unicode=" " horiz-adv-x="500" 
 />
    <glyph glyph-name="exclam" unicode="!" horiz-adv-x="300" 
d="M80 79v671h20v-671h-20zM70 19q0 8 5.5 14t13.5 6t14 -6t6 -14t-6 -13.5t-14 -5.5q-19 0 -19 19z" />
    <glyph glyph-name="dollar" unicode="$" horiz-adv-x="833" 
d="M285 385v-19q-79 0 -135.5 56t-56.5 136q0 78 54.5 134t132.5 58v59h20v-60q75 -6 126 -61.5t51 -130.5h-19q0 72 -50.5 123t-122.5 51t-122.5 -50.5t-50.5 -122.5t50.5 -122.5t122.5 -50.5zM112 193h-19q0 -79 54.5 -135.5t132.5 -57.5v9h20v-9q74 6 125.5 61.5
t51.5 131.5q0 79 -56.5 135.5t-135.5 56.5v-19q72 0 122.5 -50.5t50.5 -122.5t-50.5 -123t-122.5 -51t-122.5 51t-50.5 123zM280 -60v60h5h15v-60h-20z" />
    <glyph glyph-name="percent" unicode="%" horiz-adv-x="833" 
d="M142 730q0 8 5.5 14t13.5 6t14 -6t6 -14t-6 -13.5t-14 -5.5q-19 0 -19 19zM470 19q0 8 5.5 14t13.5 6t14 -6t6 -14t-6 -13.5t-14 -5.5q-19 0 -19 19zM142 0l346 750h21l-346 -750h-21z" />
    <glyph glyph-name="ampersand" unicode="&#x26;" horiz-adv-x="833" 
d="M474 199l184 -185l-14 -14l-65 64q-67 -64 -160 -64q-95 0 -162.5 67.5t-67.5 162.5q0 98 71 166l143 133q36 34 36 84t-36.5 86.5t-86.5 36.5t-85.5 -36.5t-35.5 -86.5q0 -38 20 -67l-11 -10q-24 35 -24 77q0 57 39.5 97t96.5 40t97 -40t40 -97q0 -54 -38 -92l-144 -138
q-64 -59 -64 -154q0 -88 61 -149t149 -61q87 0 147 60l-104 106z" />
    <glyph glyph-name="parenleft" unicode="(" horiz-adv-x="470" 
d="M423 19v-19q-155 0 -265 110t-110 265t110 265t265 110v-19q-148 0 -252 -104t-104 -252t104 -252t252 -104z" />
    <glyph glyph-name="parenright" unicode=")" horiz-adv-x="470" 
d="M48 0v19q148 0 252 104t104 252t-104 252t-252 104v19q155 0 265 -110t110 -265t-110 -265t-265 -110z" />
    <glyph glyph-name="plus" unicode="+" horiz-adv-x="650" 
d="M89 336v20h227v227h20v-227h227v-20h-227v-227h-20v227h-227z" />
    <glyph glyph-name="comma" unicode="," horiz-adv-x="250" 
d="M51 39q20 0 20 -25q0 -14 -6 -26t-12 -17l-6 -5v34q-16 2 -16 20q0 8 5.5 13.5t14.5 5.5z" />
    <glyph glyph-name="hyphen" unicode="-" horiz-adv-x="461" 
d="M29 336v18h394v-18h-394z" />
    <glyph glyph-name="period" unicode="." horiz-adv-x="250" 
d="M106 19q0 8 5.5 14t13.5 6t14 -6t6 -14t-6 -13.5t-14 -5.5q-19 0 -19 19z" />
    <glyph glyph-name="slash" unicode="/" horiz-adv-x="570" 
d="M102 0l345 750h21l-345 -750h-21z" />
    <glyph glyph-name="zero" unicode="0" 
d="M79 196v365q3 79 59.5 134t136.5 55q79 0 136.5 -55t60.5 -134v-365q0 -82 -57.5 -139t-139.5 -57t-139 57t-57 139zM452 196v357q0 73 -52 125t-125 52t-124.5 -51.5t-51.5 -125.5v-357q0 -74 51.5 -125t124.5 -51q74 0 125.5 51.5t51.5 124.5z" />
    <glyph glyph-name="one" unicode="1" horiz-adv-x="450" 
d="M227 0v750h20v-750h-20z" />
    <glyph glyph-name="two" unicode="2" 
d="M112 553h-20q0 82 57.5 139.5t139.5 57.5t139.5 -57.5t57.5 -139.5q0 -64 -40 -118l-292 -416h333v-19h-370l312 445q37 48 37 108q0 73 -52 125t-125 52t-125 -52t-52 -125z" />
    <glyph glyph-name="three" unicode="3" 
d="M120 730v20h306l-14 -20l-250 -357q40 20 87 20q82 0 139.5 -57.5t57.5 -139.5t-57.5 -139t-139.5 -57q-79 0 -135 53l15 14q50 -47 120 -47q74 0 125.5 51.5t51.5 124.5q0 74 -52 125.5t-125 51.5q-70 0 -120 -47l-14 14l274 390h-269z" />
    <glyph glyph-name="four" unicode="4" 
d="M424 0v158h-419l415 592h24v-571h138v-21h-138v-158h-20zM43 179h381v542z" />
    <glyph glyph-name="five" unicode="5" 
d="M147 374v376h316v-20h-296v-336h109q82 0 139.5 -57.5t57.5 -139.5t-57.5 -139.5t-139.5 -57.5t-139.5 57.5t-57.5 139.5h20q0 -73 51.5 -125t125.5 -52t125.5 52t51.5 125t-51.5 125t-125.5 52h-129z" />
    <glyph glyph-name="six" unicode="6" 
d="M78 196q0 67 40 120l305 434h23l-269 -382q45 25 97 25q82 0 139.5 -57.5t57.5 -139.5t-57.5 -139t-139.5 -57t-139 57t-57 139zM97 196q0 -74 51.5 -125.5t125.5 -51.5t126 51.5t52 125.5t-52 126t-126 52t-125.5 -52t-51.5 -126z" />
    <glyph glyph-name="seven" unicode="7" 
d="M34 730v20h575l-525 -750h-26l514 730h-538z" />
    <glyph glyph-name="eight" unicode="8" 
d="M79 197q0 65 37.5 116.5t97.5 71.5q-56 19 -90.5 67.5t-34.5 109.5q0 78 54.5 133t132.5 55t133 -55t55 -133q0 -61 -35.5 -109.5t-91.5 -67.5q60 -20 98.5 -72t38.5 -116q0 -82 -58 -139.5t-140 -57.5t-139.5 57.5t-57.5 139.5zM99 197q0 -73 51.5 -125t125.5 -52
t126 52t52 125q0 71 -50 123t-121 55h-7h-8q-70 -3 -119.5 -55t-49.5 -123zM109 562q0 -68 46 -116.5t114 -50.5h7q70 0 119 48.5t49 118.5t-49 119t-119 49t-118.5 -49t-48.5 -119z" />
    <glyph glyph-name="nine" unicode="9" 
d="M472 554q0 -67 -40 -120l-305 -434h-23l269 382q-45 -25 -97 -25q-82 0 -139.5 57.5t-57.5 139.5t57.5 139t139.5 57t139 -57t57 -139zM453 554q0 74 -51.5 125.5t-125.5 51.5t-126 -51.5t-52 -125.5t52 -126t126 -52t125.5 52t51.5 126z" />
    <glyph glyph-name="colon" unicode=":" horiz-adv-x="268" 
d="M61 374q0 8 6 14.5t14 6.5t14.5 -6.5t6.5 -14.5t-6.5 -14t-14.5 -6t-14 6t-6 14zM61 19q0 8 6 14.5t14 6.5t14.5 -6.5t6.5 -14.5t-6.5 -14t-14.5 -6t-14 6t-6 14z" />
    <glyph glyph-name="semicolon" unicode=";" horiz-adv-x="268" 
d="M61 375q0 8 6 14.5t14 6.5t14.5 -6.5t6.5 -14.5t-6.5 -14t-14.5 -6t-14 6t-6 14zM80 39q21 0 21 -25q0 -14 -5.5 -26t-11.5 -17l-6 -5v34q-16 2 -16 20q0 8 5.5 13.5t12.5 5.5z" />
    <glyph glyph-name="equal" unicode="=" horiz-adv-x="650" 
d="M117 429v20h394v-20h-394zM117 251v19h394v-19h-394z" />
    <glyph glyph-name="question" unicode="?" horiz-adv-x="550" 
d="M219 80v293q74 0 126.5 52.5t52.5 126.5t-52.5 126.5t-126.5 52.5t-126 -52t-53 -125h-19q1 81 59 138.5t139 57.5q82 0 140 -58t58 -140q0 -76 -51.5 -132.5t-126.5 -64.5v-275h-20zM209 20q0 8 6 14t14 6t14 -6t6 -14t-6 -14t-14 -6t-14 6t-6 14z" />
    <glyph glyph-name="A" unicode="A" horiz-adv-x="756" 
d="M39 0h-22l350 750h21l353 -750h-22l-114 241h-454zM378 727l-217 -466h434z" />
    <glyph glyph-name="B" unicode="B" horiz-adv-x="736" 
d="M473 750q75 0 128.5 -53.5t53.5 -128.5q0 -56 -31.5 -102t-81.5 -67q67 -17 110 -71.5t43 -124.5q0 -84 -59.5 -143.5t-143.5 -59.5h-389v750h370zM492 386h-369v-366h369q76 0 129.5 53.5t53.5 129.5t-53.5 129.5t-129.5 53.5zM123 406h350q67 0 114.5 47.5t47.5 114.5
t-47.5 114.5t-114.5 47.5h-350v-324z" />
    <glyph glyph-name="C" unicode="C" horiz-adv-x="773" 
d="M685 125l14 -15q-110 -110 -266 -110q-155 0 -265 110t-110 265t110 265t265 110q154 0 264 -108l-14 -13q-104 102 -250 102q-148 0 -252 -104t-104 -252t104 -252t252 -104t252 106z" />
    <glyph glyph-name="D" unicode="D" horiz-adv-x="815" 
d="M103 0v750h282q155 -1 264.5 -111t109.5 -264q0 -155 -110 -265t-265 -110h-281zM738 375q0 148 -104 251.5t-252 103.5h-259v-710h259q148 0 252 103.5t104 251.5z" />
    <glyph glyph-name="E" unicode="E" horiz-adv-x="634" 
d="M103 0v750h467v-20h-448v-336h417v-20h-417v-354h448v-20h-467z" />
    <glyph glyph-name="F" unicode="F" horiz-adv-x="635" 
d="M103 0v750h467v-20h-448v-336h417v-20h-417v-374h-19z" />
    <glyph glyph-name="G" unicode="G" horiz-adv-x="869" 
d="M440 382v21h377v-28q0 -155 -111 -265t-266 -110t-265 110t-110 265t110 265t265 110q154 0 264 -108l-14 -13q-104 102 -250 102q-148 0 -252 -104t-104 -252t104 -252t252 -104q147 0 251.5 105.5t104.5 250.5v7h-356z" />
    <glyph glyph-name="H" unicode="H" horiz-adv-x="817" 
d="M715 0v374h-593v-374h-19v750h19v-357h593v357h19v-750h-19z" />
    <glyph glyph-name="I" unicode="I" horiz-adv-x="280" 
d="M144 0h-19v750h19v-750z" />
    <glyph glyph-name="J" unicode="J" horiz-adv-x="600" 
d="M525 750v-480q0 -126 -80 -198q-79 -72 -211 -72q-72 0 -113 17t-102 61l14 14q49 -39 94.5 -56t104.5 -17q48 0 94 13.5t87.5 41t67 79t25.5 120.5v477h19z" />
    <glyph glyph-name="K" unicode="K" horiz-adv-x="698" 
d="M580 750l-344 -343l406 -407h-30l-392 391l-98 -98v-293h-19v750h19v-427l430 427h28z" />
    <glyph glyph-name="L" unicode="L" horiz-adv-x="635" 
d="M122 750v-731h449v-19h-468v750h19z" />
    <glyph glyph-name="M" unicode="M" horiz-adv-x="977" 
d="M874 0v731l-376 -375l-375 375v-731h-20v750h29l366 -367l367 367h29v-750h-20z" />
    <glyph glyph-name="N" unicode="N" horiz-adv-x="810" 
d="M704 0l-581 730v-730h-20v750h33l579 -730v730h20v-750h-31z" />
    <glyph glyph-name="O" unicode="O" horiz-adv-x="871" 
d="M60 375q0 156 109.5 265.5t265.5 109.5t266 -109.5t110 -265.5t-110 -265.5t-266 -109.5t-265.5 109.5t-109.5 265.5zM79 375q0 -149 103.5 -252.5t252.5 -103.5t253 104t104 252t-104 252t-253 104t-252.5 -103.5t-103.5 -252.5z" />
    <glyph glyph-name="P" unicode="P" horiz-adv-x="625" 
d="M356 750q92 0 157 -65t65 -157q0 -91 -65 -156t-157 -65h-234v-307h-19v750h253zM354 731h-232v-405h234q83 1 142 59.5t59 142.5t-59.5 143.5t-143.5 59.5z" />
    <glyph glyph-name="Q" unicode="Q" horiz-adv-x="914" 
d="M60 375q0 156 109.5 265.5t265.5 109.5t266 -109.5t110 -265.5q0 -155 -110 -265l111 -110h-30l-96 95q-106 -95 -251 -95q-156 0 -265.5 109.5t-109.5 265.5zM448 334l15 15l225 -226q104 104 104 252t-104 252t-253 104t-252.5 -103.5t-103.5 -252.5t103.5 -252.5
t252.5 -103.5q137 0 238 90z" />
    <glyph glyph-name="R" unicode="R" horiz-adv-x="636" 
d="M513 0l-177 307h-214v-307h-19v750h253q92 0 157 -65t65 -157q0 -91 -64 -155t-155 -66l177 -307h-23zM557 528q0 83 -59 142.5t-142 60.5h-234v-405h234q83 1 142 59.5t59 142.5z" />
    <glyph glyph-name="S" unicode="S" horiz-adv-x="524" 
d="M454 557h-19q0 72 -50.5 122.5t-122.5 50.5t-122.5 -50.5t-50.5 -122.5t50.5 -122.5t122.5 -50.5q80 0 136 -56t56 -136t-56 -136t-136 -56q-79 0 -135.5 56.5t-56.5 136.5h19q0 -72 50.5 -123t122.5 -51t122.5 50.5t50.5 122.5t-50.5 123t-122.5 51q-80 0 -136 56
t-56 136t56 136t136 56q79 0 135.5 -56.5t56.5 -136.5z" />
    <glyph glyph-name="T" unicode="T" horiz-adv-x="711" 
d="M60 750h592v-19h-287v-731h-19v731h-286v19z" />
    <glyph glyph-name="U" unicode="U" horiz-adv-x="741" 
d="M74 296v454h20v-454q0 -114 81 -194.5t195 -80.5t195 80t82 194v455h20v-454q0 -123 -87 -209.5t-210 -86.5t-209.5 86.5t-86.5 209.5z" />
    <glyph glyph-name="V" unicode="V" horiz-adv-x="780" 
d="M713 750h22l-350 -750h-22l-353 750h22l342 -727z" />
    <glyph glyph-name="W" unicode="W" horiz-adv-x="1159" 
d="M564 391l-182 -391h-22l-353 750h22l342 -727l182 392h22l184 -392l339 727h22l-350 -750h-22z" />
    <glyph glyph-name="X" unicode="X" horiz-adv-x="671" 
d="M84 0h-26l273 389l-252 361h25l239 -343l240 343h25l-252 -361l273 -389h-26l-260 371z" />
    <glyph glyph-name="Y" unicode="Y" horiz-adv-x="646" 
d="M284 0v277l-277 473h24l262 -454l263 454h24l-277 -473v-277h-19z" />
    <glyph glyph-name="Z" unicode="Z" horiz-adv-x="647" 
d="M567 0h-456l421 730h-421v20h456l-421 -730h421v-20z" />
    <glyph glyph-name="bracketleft" unicode="[" horiz-adv-x="340" 
d="M52 0v750h99v-19h-79v-711h79v-20h-99z" />
    <glyph glyph-name="backslash" unicode="\" horiz-adv-x="570" 
d="M123 751l346 -751h-21l-346 751h21z" />
    <glyph glyph-name="bracketright" unicode="]" horiz-adv-x="340" 
d="M151 750v-750h-99v20h79v711h-79v19h99z" />
    <glyph glyph-name="underscore" unicode="_" horiz-adv-x="500" 
d="M53 -21v21h394v-21h-394z" />
    <glyph glyph-name="a" unicode="a" horiz-adv-x="754" 
d="M39 0h-22l350 750h22l350 -750h-22l-112 241h-454zM378 727l-217 -466h434z" />
    <glyph glyph-name="b" unicode="b" horiz-adv-x="736" 
d="M473 750q75 0 128.5 -53.5t53.5 -128.5q0 -56 -31.5 -102t-81.5 -67q67 -17 110 -71.5t43 -124.5q0 -84 -59.5 -143.5t-143.5 -59.5h-389v750h370zM492 386h-369v-366h369q76 0 129.5 53.5t53.5 129.5t-53.5 129.5t-129.5 53.5zM123 406h350q67 0 114.5 47.5t47.5 114.5
t-47.5 114.5t-114.5 47.5h-350v-324z" />
    <glyph glyph-name="c" unicode="c" horiz-adv-x="773" 
d="M685 125l14 -15q-110 -110 -266 -110q-155 0 -265 110t-110 265t110 265t265 110q154 0 264 -108l-14 -13q-104 102 -250 102q-148 0 -252 -104t-104 -252t104 -252t252 -104t252 106z" />
    <glyph glyph-name="d" unicode="d" horiz-adv-x="815" 
d="M103 0v750h282q155 -1 264.5 -111t109.5 -264q0 -155 -110 -265t-265 -110h-281zM738 375q0 148 -104 251.5t-252 103.5h-259v-710h259q148 0 252 103.5t104 251.5z" />
    <glyph glyph-name="e" unicode="e" horiz-adv-x="634" 
d="M103 0v750h467v-20h-448v-336h417v-20h-417v-354h448v-20h-467z" />
    <glyph glyph-name="f" unicode="f" horiz-adv-x="635" 
d="M103 0v750h467v-20h-448v-336h417v-20h-417v-374h-19z" />
    <glyph glyph-name="g" unicode="g" horiz-adv-x="869" 
d="M440 382v21h377v-28q0 -155 -111 -265t-266 -110t-265 110t-110 265t110 265t265 110q154 0 264 -108l-14 -13q-104 102 -250 102q-148 0 -252 -104t-104 -252t104 -252t252 -104q147 0 251.5 105.5t104.5 250.5v7h-356z" />
    <glyph glyph-name="h" unicode="h" horiz-adv-x="817" 
d="M715 0v374h-593v-374h-19v750h19v-357h593v357h19v-750h-19z" />
    <glyph glyph-name="i" unicode="i" horiz-adv-x="280" 
d="M144 0h-19v750h19v-750z" />
    <glyph glyph-name="j" unicode="j" horiz-adv-x="600" 
d="M525 750v-480q0 -126 -80 -198q-79 -72 -211 -72q-72 0 -113 17t-102 61l14 14q49 -39 94.5 -56t104.5 -17q48 0 94 13.5t87.5 41t67 79t25.5 120.5v477h19z" />
    <glyph glyph-name="k" unicode="k" horiz-adv-x="698" 
d="M580 750l-344 -343l406 -407h-30l-392 391l-98 -98v-293h-19v750h19v-427l430 427h28z" />
    <glyph glyph-name="l" unicode="l" horiz-adv-x="635" 
d="M122 750v-731h449v-19h-468v750h19z" />
    <glyph glyph-name="m" unicode="m" horiz-adv-x="977" 
d="M874 0v731l-376 -375l-375 375v-731h-20v750h29l366 -367l367 367h29v-750h-20z" />
    <glyph glyph-name="n" unicode="n" horiz-adv-x="810" 
d="M704 0l-581 730v-730h-20v750h33l579 -730v730h20v-750h-31z" />
    <glyph glyph-name="o" unicode="o" horiz-adv-x="871" 
d="M60 375q0 156 109.5 265.5t265.5 109.5t266 -109.5t110 -265.5t-110 -265.5t-266 -109.5t-265.5 109.5t-109.5 265.5zM79 375q0 -149 103.5 -252.5t252.5 -103.5t253 104t104 252t-104 252t-253 104t-252.5 -103.5t-103.5 -252.5z" />
    <glyph glyph-name="p" unicode="p" horiz-adv-x="625" 
d="M356 750q92 0 157 -65t65 -157q0 -91 -65 -156t-157 -65h-234v-307h-19v750h253zM354 731h-232v-405h234q83 1 142 59.5t59 142.5t-59.5 143.5t-143.5 59.5z" />
    <glyph glyph-name="q" unicode="q" horiz-adv-x="914" 
d="M60 375q0 156 109.5 265.5t265.5 109.5t266 -109.5t110 -265.5q0 -155 -110 -265l111 -110h-30l-96 95q-106 -95 -251 -95q-156 0 -265.5 109.5t-109.5 265.5zM448 334l15 15l225 -226q104 104 104 252t-104 252t-253 104t-252.5 -103.5t-103.5 -252.5t103.5 -252.5
t252.5 -103.5q137 0 238 90z" />
    <glyph glyph-name="r" unicode="r" horiz-adv-x="636" 
d="M513 0l-177 307h-214v-307h-19v750h253q92 0 157 -65t65 -157q0 -91 -64 -155t-155 -66l177 -307h-23zM557 528q0 83 -59 142.5t-142 60.5h-234v-405h234q83 1 142 59.5t59 142.5z" />
    <glyph glyph-name="s" unicode="s" horiz-adv-x="524" 
d="M454 557h-19q0 72 -50.5 122.5t-122.5 50.5t-122.5 -50.5t-50.5 -122.5t50.5 -122.5t122.5 -50.5q80 0 136 -56t56 -136t-56 -136t-136 -56q-79 0 -135.5 56.5t-56.5 136.5h19q0 -72 50.5 -123t122.5 -51t122.5 50.5t50.5 122.5t-50.5 123t-122.5 51q-80 0 -136 56
t-56 136t56 136t136 56q79 0 135.5 -56.5t56.5 -136.5z" />
    <glyph glyph-name="t" unicode="t" horiz-adv-x="711" 
d="M60 750h592v-19h-287v-731h-19v731h-286v19z" />
    <glyph glyph-name="u" unicode="u" horiz-adv-x="741" 
d="M74 296v454h20v-454q0 -114 81 -194.5t195 -80.5t195 80t82 194v455h20v-454q0 -123 -87 -209.5t-210 -86.5t-209.5 86.5t-86.5 209.5z" />
    <glyph glyph-name="v" unicode="v" horiz-adv-x="780" 
d="M713 750h22l-350 -750h-22l-353 750h22l342 -727z" />
    <glyph glyph-name="w" unicode="w" horiz-adv-x="1159" 
d="M564 391l-182 -391h-22l-353 750h22l342 -727l182 392h22l184 -392l339 727h22l-350 -750h-22z" />
    <glyph glyph-name="x" unicode="x" horiz-adv-x="671" 
d="M84 0h-26l273 389l-252 361h25l239 -343l240 343h25l-252 -361l273 -389h-26l-260 371z" />
    <glyph glyph-name="y" unicode="y" horiz-adv-x="646" 
d="M284 0v277l-277 473h24l262 -454l263 454h24l-277 -473v-277h-19z" />
    <glyph glyph-name="z" unicode="z" horiz-adv-x="647" 
d="M567 0h-456l421 730h-421v20h456l-421 -730h421v-20z" />
    <glyph glyph-name="exclamdown" unicode="&#xa1;" horiz-adv-x="300" 
d="M80 0v671h20v-671h-20zM70 731q0 19 19 19q8 0 14 -5.5t6 -13.5t-6 -14t-14 -6t-13.5 6t-5.5 14z" />
    <glyph glyph-name="questiondown" unicode="&#xbf;" horiz-adv-x="550" 
d="M236 670v-293q-74 0 -126.5 -52.5t-52.5 -126.5t52.5 -126.5t126.5 -52.5t126 52t53 125h19q-1 -81 -59 -138.5t-139 -57.5q-82 0 -140 58t-58 140q0 76 51.5 132.5t126.5 64.5v275h20zM246 730q0 -8 -6 -14t-14 -6t-14 6t-6 14t6 14t14 6t14 -6t6 -14z" />
    <glyph glyph-name="quoteleft" unicode="&#x2018;" horiz-adv-x="100" 
d="M56 677q-20 0 -20 25q0 14 6 26t12 17l6 5v-34q16 -2 16 -20q0 -8 -5.5 -13.5t-14.5 -5.5z" />
    <glyph glyph-name="quoteright" unicode="&#x2019;" horiz-adv-x="100" 
d="M55 750q20 0 20 -25q0 -14 -6 -26t-12 -17l-6 -5v34q-16 2 -16 20q0 8 5.5 13.5t14.5 5.5z" />
    <glyph glyph-name="quotedblleft" unicode="&#x201c;" horiz-adv-x="190" 
d="M72 677q-20 0 -20 25q0 14 6 26t12 17l6 5v-34q16 -2 16 -20q0 -8 -5.5 -13.5t-14.5 -5.5zM120 677q-20 0 -20 25q0 14 6 26t12 17l6 5v-34q16 -2 16 -20q0 -8 -5.5 -13.5t-14.5 -5.5z" />
    <glyph glyph-name="quotedblright" unicode="&#x201d;" horiz-adv-x="190" 
d="M128 750q20 0 20 -25q0 -14 -6 -26t-12 -17l-6 -5v34q-16 2 -16 20q0 8 5.5 13.5t14.5 5.5zM80 750q20 0 20 -25q0 -14 -6 -26t-12 -17l-6 -5v34q-16 2 -16 20q0 8 5.5 13.5t14.5 5.5z" />
    <glyph glyph-name="fraction" unicode="&#x2044;" horiz-adv-x="570" 
d="M102 0l346 750h21l-346 -750h-21z" />
    </font>
</defs>
</svg>
